<svg width="200" height="162" viewBox="0 0 200 162" fill="none" xmlns="http://www.w3.org/2000/svg">
<path fill-rule="evenodd" clip-rule="evenodd" d="M100 91.6645C125.313 91.6645 145.832 71.1447 145.832 45.8323C145.832 20.5198 125.313 0 100 0C74.6878 0 54.168 20.5198 54.168 45.8323C54.168 71.1447 74.6878 91.6645 100 91.6645ZM84.5982 24.4042C77.3164 24.4042 71.0849 30.119 70.8425 37.4637C70.5799 45.1446 76.67 51.4503 84.2246 51.4605H84.2448C87.7493 51.4605 90.9408 50.1056 93.3345 47.8849L117.352 26.3804C118.119 25.6877 117.634 24.4042 116.604 24.4042H84.5982ZM83.3964 67.2603H115.402C122.684 67.2603 128.916 61.5455 129.158 54.2008C129.421 46.5199 123.331 40.2142 115.776 40.204H115.756C112.251 40.204 109.06 41.5589 106.666 43.7796L82.649 65.2841C81.8814 65.9768 82.3662 67.2603 83.3964 67.2603Z" fill="white"/>
<path d="M16.6123 151.817C11.3646 151.817 6.06737 149.985 1.90883 146.272L6.41392 140.876C9.53283 143.45 12.8003 145.084 16.7608 145.084C19.8797 145.084 21.7609 143.846 21.7609 141.817V141.718C21.7609 139.787 20.5728 138.797 14.7805 137.312C7.8001 135.529 3.29501 133.599 3.29501 126.717V126.618C3.29501 120.331 8.34467 116.172 15.4241 116.172C20.4738 116.172 24.7808 117.756 28.2958 120.578L24.3353 126.321C21.2659 124.192 18.246 122.905 15.3251 122.905C12.4042 122.905 10.8695 124.242 10.8695 125.925V126.024C10.8695 128.301 12.3547 129.044 18.345 130.579C25.3749 132.41 29.3354 134.935 29.3354 140.975V141.074C29.3354 147.955 24.0877 151.817 16.6123 151.817ZM37.1706 151.322L52.0226 116.42H59.0525L73.9044 151.322H65.9339L62.7655 143.549H48.1116L44.9431 151.322H37.1706ZM50.8344 136.816H60.0426L55.4385 125.578L50.8344 136.816ZM84.1674 151.322V116.667H91.1973L107.435 138.005V116.667H114.96V151.322H108.475L91.6924 129.291V151.322H84.1674ZM128.194 151.322V116.667H141.709C152.6 116.667 160.125 124.143 160.125 133.896V133.995C160.125 143.747 152.6 151.322 141.709 151.322H128.194ZM141.709 123.549H135.818V144.44H141.709C147.947 144.44 152.155 140.232 152.155 134.094V133.995C152.155 127.856 147.947 123.549 141.709 123.549ZM178.347 151.322V137.658L165.03 116.667H173.941L182.208 130.579L190.625 116.667H199.288L185.971 137.51V151.322H178.347Z" fill="white"/>
</svg>
